<?xml version="1.0" standalone="no"?>
<svg xmlns:xlink="http://www.w3.org/1999/xlink" id="wave" style="transform:rotate(0deg); transition: 0.3s" viewBox="0 0 1440 410" version="1.1" xmlns="http://www.w3.org/2000/svg"><defs><linearGradient id="sw-gradient-0" x1="0" x2="0" y1="1" y2="0"><stop stop-color="rgba(179, 229, 159, 1)" offset="0%"/><stop stop-color="rgba(179, 229, 159, 1)" offset="100%"/></linearGradient></defs><path style="transform:translate(0, 0px); opacity:1" fill="url(#sw-gradient-0)" d="M0,205L34.3,198.2C68.6,191,137,178,206,198.2C274.3,219,343,273,411,266.5C480,260,549,191,617,177.7C685.7,164,754,205,823,198.2C891.4,191,960,137,1029,102.5C1097.1,68,1166,55,1234,88.8C1302.9,123,1371,205,1440,225.5C1508.6,246,1577,205,1646,184.5C1714.3,164,1783,164,1851,170.8C1920,178,1989,191,2057,205C2125.7,219,2194,232,2263,259.7C2331.4,287,2400,328,2469,334.8C2537.1,342,2606,314,2674,252.8C2742.9,191,2811,96,2880,47.8C2948.6,0,3017,0,3086,41C3154.3,82,3223,164,3291,191.3C3360,219,3429,191,3497,205C3565.7,219,3634,273,3703,300.7C3771.4,328,3840,328,3909,287C3977.1,246,4046,164,4114,170.8C4182.9,178,4251,273,4320,314.3C4388.6,355,4457,342,4526,300.7C4594.3,260,4663,191,4731,136.7C4800,82,4869,41,4903,20.5L4937.1,0L4937.1,410L4902.9,410C4868.6,410,4800,410,4731,410C4662.9,410,4594,410,4526,410C4457.1,410,4389,410,4320,410C4251.4,410,4183,410,4114,410C4045.7,410,3977,410,3909,410C3840,410,3771,410,3703,410C3634.3,410,3566,410,3497,410C3428.6,410,3360,410,3291,410C3222.9,410,3154,410,3086,410C3017.1,410,2949,410,2880,410C2811.4,410,2743,410,2674,410C2605.7,410,2537,410,2469,410C2400,410,2331,410,2263,410C2194.3,410,2126,410,2057,410C1988.6,410,1920,410,1851,410C1782.9,410,1714,410,1646,410C1577.1,410,1509,410,1440,410C1371.4,410,1303,410,1234,410C1165.7,410,1097,410,1029,410C960,410,891,410,823,410C754.3,410,686,410,617,410C548.6,410,480,410,411,410C342.9,410,274,410,206,410C137.1,410,69,410,34,410L0,410Z"/><defs><linearGradient id="sw-gradient-1" x1="0" x2="0" y1="1" y2="0"><stop stop-color="rgba(149, 214, 164, 1)" offset="0%"/><stop stop-color="rgba(149, 214, 164, 1)" offset="100%"/></linearGradient></defs><path style="transform:translate(0, 50px); opacity:0.9" fill="url(#sw-gradient-1)" d="M0,246L34.3,266.5C68.6,287,137,328,206,341.7C274.3,355,343,342,411,314.3C480,287,549,246,617,218.7C685.7,191,754,178,823,184.5C891.4,191,960,219,1029,198.2C1097.1,178,1166,109,1234,68.3C1302.9,27,1371,14,1440,68.3C1508.6,123,1577,246,1646,246C1714.3,246,1783,123,1851,95.7C1920,68,1989,137,2057,150.3C2125.7,164,2194,123,2263,123C2331.4,123,2400,164,2469,164C2537.1,164,2606,123,2674,88.8C2742.9,55,2811,27,2880,34.2C2948.6,41,3017,82,3086,95.7C3154.3,109,3223,96,3291,123C3360,150,3429,219,3497,266.5C3565.7,314,3634,342,3703,307.5C3771.4,273,3840,178,3909,150.3C3977.1,123,4046,164,4114,157.2C4182.9,150,4251,96,4320,116.2C4388.6,137,4457,232,4526,252.8C4594.3,273,4663,219,4731,218.7C4800,219,4869,273,4903,300.7L4937.1,328L4937.1,410L4902.9,410C4868.6,410,4800,410,4731,410C4662.9,410,4594,410,4526,410C4457.1,410,4389,410,4320,410C4251.4,410,4183,410,4114,410C4045.7,410,3977,410,3909,410C3840,410,3771,410,3703,410C3634.3,410,3566,410,3497,410C3428.6,410,3360,410,3291,410C3222.9,410,3154,410,3086,410C3017.1,410,2949,410,2880,410C2811.4,410,2743,410,2674,410C2605.7,410,2537,410,2469,410C2400,410,2331,410,2263,410C2194.3,410,2126,410,2057,410C1988.6,410,1920,410,1851,410C1782.9,410,1714,410,1646,410C1577.1,410,1509,410,1440,410C1371.4,410,1303,410,1234,410C1165.7,410,1097,410,1029,410C960,410,891,410,823,410C754.3,410,686,410,617,410C548.6,410,480,410,411,410C342.9,410,274,410,206,410C137.1,410,69,410,34,410L0,410Z"/></svg>